<svg width="77" height="46" viewBox="0 0 77 46" fill="none" xmlns="http://www.w3.org/2000/svg">
<g clip-path="url(#clip0_2_9)">
<path d="M22.9302 29.0157C24.7194 23.3543 25.9754 17.5122 26.1578 12.9136C21.8567 17.7762 15.7663 21.9372 11.8229 29.8076C8.4199 36.6222 8.23747 42.5476 11.3739 43.6104C14.4191 44.6732 19.1693 40.9568 22.9302 29.0157ZM42.0153 46H34.5777L32.157 1.94503H31.2589C30.901 4.95288 29.9117 7.34249 28.5715 9.55149C30.5432 13.4416 31.7079 18.4014 31.7079 23.9725C31.7079 38.7478 24.3616 46 16.5662 46C8.77073 46 2.41371 38.8381 2.41371 30.7871C5.64133 21.6732 19.0781 19.2002 26.0666 10.8852C25.8842 7.87738 25.1685 5.57807 23.5547 4.60556C17.7309 0.882211 2.41371 19.4295 2.41371 19.4295L0 4.47357C0 4.47357 9.04438 0 14.5103 0C20.3341 0 24.9931 3.09816 27.9471 8.22471C29.203 6.18937 29.9187 3.27182 30.2766 0.354274H46.4919C45.685 1.94503 39.9524 16.1854 39.8612 44.055H40.8435C42.1907 17.4289 48.5548 4.07067 52.5823 0C74.446 0 71.1271 8.14135 66.5593 15.4838C62.0827 23.0069 48.639 39.8106 54.0137 43.4367C57.1501 45.4721 65.8787 42.624 65.5209 23.521L76.9719 20.7563C77.421 27.9251 71.3938 46.0069 59.2972 46.0069C50.9685 46.0069 46.3095 37.5113 46.3095 30.5231C50.4282 19.4642 69.9624 9.6418 68.531 5.84204C66.5593 0.444579 43.2643 5.93235 42.0153 46.0069V46Z" fill="#EB1D1D"/>
</g>
<defs>
<clipPath id="clip0_2_9">
<rect width="77" height="46" fill="white"/>
</clipPath>
</defs>
</svg>
