<svg width="40" height="62" viewBox="0 0 40 62" fill="none" xmlns="http://www.w3.org/2000/svg">
<g clip-path="url(#clip0_2_30)">
<path d="M31.2228 14.6666C31.2228 11.3331 29.6107 8.72264 24.89 8.72264H8.66584V28.7784H13.1659V21.7225H23.5553C25.8883 21.7225 26.5 22.3888 26.5 24.7218V28.7784H31V24.0009C31 21.6176 30.1546 20.2196 28.276 19.7434C30.2289 19.0836 31.2206 17.1941 31.2206 14.6666H31.2228ZM24.2783 17.4999H13.1681V12.9452H24.2783C25.9451 12.9452 26.7228 13.8343 26.7228 15.1669C26.7228 16.4994 26.0565 17.4999 24.2783 17.4999ZM0 62H39.668V0H0V62ZM4.33401 4.33401H35.334V57.6682H4.33401V4.33401ZM26.5 33.2238H31V53.2795H16.6108C10.8329 53.2795 8.66584 51.1125 8.66584 45.3346V33.2238H13.1659V45.446C13.1659 48.0018 14.1664 49.0569 16.4994 49.0569H26.5V33.2238Z" fill="#EB1D1D"/>
</g>
<defs>
<clipPath id="clip0_2_30">
<rect width="39.668" height="62" fill="white"/>
</clipPath>
</defs>
</svg>
